<?xml version="1.0" encoding="UTF-8"?>
<svg id="Capa_2" data-name="Capa 2" xmlns="http://www.w3.org/2000/svg" xmlns:xlink="http://www.w3.org/1999/xlink" viewBox="0 0 503.62 375.59">
  <defs>
    <style>
      .cls-1 {
        fill: url(#Degradado_sin_nombre_16);
      }

      .cls-2 {
        fill: url(#Degradado_sin_nombre_26);
      }

      .cls-3 {
        fill: url(#Degradado_sin_nombre_48);
      }

      .cls-4 {
        fill: none;
      }

      .cls-5 {
        fill: url(#Degradado_sin_nombre_4);
      }

      .cls-6 {
        fill: #0c895b;
      }

      .cls-7 {
        fill: url(#Degradado_sin_nombre_45);
      }

      .cls-8 {
        fill: url(#Degradado_sin_nombre_17);
      }

      .cls-9 {
        fill: url(#Degradado_sin_nombre_47);
      }

      .cls-10 {
        fill: url(#Degradado_sin_nombre_16-2);
      }

      .cls-11 {
        fill: url(#Degradado_sin_nombre_7);
      }

      .cls-12 {
        fill: #0f785b;
      }

      .cls-13 {
        fill: url(#Degradado_sin_nombre_12-2);
      }

      .cls-14 {
        fill: #19875f;
      }

      .cls-15 {
        fill: #b1d492;
      }

      .cls-16 {
        fill: url(#Degradado_sin_nombre_30);
      }

      .cls-17 {
        fill: url(#Degradado_sin_nombre_12);
      }
    </style>
    <linearGradient id="Degradado_sin_nombre_12" data-name="Degradado sin nombre 12" x1="-2.15" y1="166.16" x2="123.71" y2="379.49" gradientUnits="userSpaceOnUse">
      <stop offset="0" stop-color="#70c248"/>
      <stop offset=".27" stop-color="#5fbb4e"/>
      <stop offset=".7" stop-color="#159b63"/>
      <stop offset="1" stop-color="#0f9865"/>
    </linearGradient>
    <linearGradient id="Degradado_sin_nombre_17" data-name="Degradado sin nombre 17" x1="2200.16" y1="-1412.97" x2="2217.13" y2="-2062.09" gradientTransform="translate(-490.81 -338.36) scale(.24 -.24)" gradientUnits="userSpaceOnUse">
      <stop offset="0" stop-color="#b0dd38"/>
      <stop offset=".42" stop-color="#bce434"/>
      <stop offset="1" stop-color="#84cc44"/>
    </linearGradient>
    <linearGradient id="Degradado_sin_nombre_47" data-name="Degradado sin nombre 47" x1="37.21" y1="339.5" x2="41.95" y2="185.7" gradientTransform="translate(0 344.4) scale(1 -1)" gradientUnits="userSpaceOnUse">
      <stop offset=".07" stop-color="#d9f22c"/>
      <stop offset=".96" stop-color="#84cc44"/>
    </linearGradient>
    <linearGradient id="Degradado_sin_nombre_12-2" data-name="Degradado sin nombre 12" x1="42.88" y1="245.31" x2="42.98" y2="245.15" xlink:href="#Degradado_sin_nombre_12"/>
    <linearGradient id="Degradado_sin_nombre_16" data-name="Degradado sin nombre 16" x1="4143.73" y1="-2382.39" x2="3282.28" y2="-2903.53" gradientTransform="translate(-490.81 -338.36) scale(.24 -.24)" gradientUnits="userSpaceOnUse">
      <stop offset="0" stop-color="#46b542"/>
      <stop offset=".28" stop-color="#43b33f"/>
      <stop offset=".59" stop-color="#25a559"/>
      <stop offset="1" stop-color="#187c33"/>
    </linearGradient>
    <linearGradient id="Degradado_sin_nombre_16-2" data-name="Degradado sin nombre 16" x1="4143.63" y1="-2382.24" x2="3282.19" y2="-2903.38" xlink:href="#Degradado_sin_nombre_16"/>
    <linearGradient id="Degradado_sin_nombre_7" data-name="Degradado sin nombre 7" x1="298.97" y1="331.58" x2="422.01" y2="331.58" gradientUnits="userSpaceOnUse">
      <stop offset="0" stop-color="#187c33"/>
      <stop offset="1" stop-color="#25a559"/>
    </linearGradient>
    <linearGradient id="Degradado_sin_nombre_4" data-name="Degradado sin nombre 4" x1="278.23" y1="202.17" x2="186.88" y2="25.05" gradientTransform="translate(0 344.4) scale(1 -1)" gradientUnits="userSpaceOnUse">
      <stop offset="0" stop-color="#92d742"/>
      <stop offset=".22" stop-color="#a0dd3e"/>
      <stop offset=".46" stop-color="#25a559"/>
      <stop offset=".81" stop-color="#2aa857"/>
    </linearGradient>
    <linearGradient id="Degradado_sin_nombre_26" data-name="Degradado sin nombre 26" x1="2744.49" y1="-1872.17" x2="3008.07" y2="-2753.77" gradientTransform="translate(-490.81 -338.36) scale(.24 -.24)" gradientUnits="userSpaceOnUse">
      <stop offset="0" stop-color="#acdf3b"/>
      <stop offset=".56" stop-color="#a9df3c"/>
      <stop offset="1" stop-color="#25935f"/>
    </linearGradient>
    <linearGradient id="Degradado_sin_nombre_30" data-name="Degradado sin nombre 30" x1="2901.99" y1="-1780.15" x2="3323.84" y2="-1800.63" gradientTransform="translate(-490.81 -338.36) scale(.24 -.24)" gradientUnits="userSpaceOnUse">
      <stop offset="0" stop-color="#239961"/>
      <stop offset="1" stop-color="#2fb278"/>
    </linearGradient>
    <linearGradient id="Degradado_sin_nombre_45" data-name="Degradado sin nombre 45" x1="66.46" y1="60.98" x2="434.89" y2="60.98" gradientTransform="translate(0 344.4) scale(1 -1)" gradientUnits="userSpaceOnUse">
      <stop offset=".25" stop-color="#a9df3c"/>
      <stop offset=".45" stop-color="#25935f"/>
    </linearGradient>
    <linearGradient id="Degradado_sin_nombre_48" data-name="Degradado sin nombre 48" x1="3236.98" y1="-1566.16" x2="3961.73" y2="-2167.41" gradientTransform="translate(-490.81 -338.36) scale(.24 -.24)" gradientUnits="userSpaceOnUse">
      <stop offset="0" stop-color="#36b879"/>
      <stop offset="1" stop-color="#52b23d"/>
    </linearGradient>
  </defs>
  <g id="Capa_1-2" data-name="Capa 1">
    <g>
      <g>
        <path class="cls-17" d="M155.02,309.01l-1.65-.56c-18.28-.32-39.91,1.74-57.62-1.5-12.75-2.36-17.15-8.18-18.16-20.84-2.6-33.05.03-130.81,0-143.95l.17-12.01-8.44,7.24c-21.75,26.27-52.03,24.47-66.7-6.06l-2.24-1.18v113.75l-.03,83.45c-.02,7.69,0,45.89,54.09,46.38h98.53s-.02-.02-.03-.02c.03,0,.05.02.08.02h.34c2.43.2,49.62.24,49.62.24-25.36-13.05-41.66-38.6-47.95-64.97Z"/>
        <path class="cls-8" d="M77.77,130.16c-4.33,13.01-18.02,27.83-31.72,28.89-22.08,1.74-36.13-10.48-45.66-29.01,0-24.11-.12-48.58.03-72.49.06-10.01-.97-22.2,0-31.88C3.78-8.98,72.79-6.82,77.28,21.75c.65,4.04.91,10.24,1.06,14.52,1.27,34.53-.3,69.92-.74,104.39l.17-10.5Z"/>
        <path class="cls-6" d="M153.35,308.52c3.54.06,11.51-.83,13.96,1.62,9.47,16.68,13.28,20.75,27.53,35.36,8.13,8.16,27.48,23.55,35.57,28.48,1.92,1.18-19.61-.03-27.46,0-18.89-9.3-31.02-24.97-42.66-43.73l-12.05-21.82,5.12.1Z"/>
        <path class="cls-9" d="M55.56,133.25c-25.88,12.01-47.29,19.47-47.29-9.36,0-.8.06-1.6.13-2.4C11.29,90.06-8.13,3.8,43.83,8.25c8.1.69,15.56,5.19,19.59,12.25,12.04,21.05,7.48,62.83,7.03,89.88-.17,9.84-5.96,18.72-14.89,22.87Z"/>
      </g>
      <path class="cls-13" d="M43.1,245.44c-.12-.15-.22-.29-.34-.42.19.17.29.27.29.27,0,0,.02.05.05.15Z"/>
      <path class="cls-15" d="M83.46,88.85c-.04.4-.2.73-.36,1.01-.24.44-.57.73-.61.93"/>
      <g>
        <path class="cls-1" d="M326.53,292.04c-2.86,27.34-9.2,57.93-27.56,80.15,24.91,3.17,50.17,4.6,74.29,1.87,33.24-3.82,64.36-15.67,89.61-42.01,29.51-30.85,62.27-95.69,21.96-130.4-21-18.1-55.81-12.37-68.65,12.45-17.53,33.85-17.84,63.18-47.17,73.86-8.55,3.08-19.53,4.6-34.11,4.21"/>
        <path class="cls-4" d="M326.53,292.04c-2.86,27.34-9.2,57.93-27.56,80.15,24.91,3.17,50.17,4.6,74.29,1.87,33.24-3.82,64.36-15.67,89.61-42.01,29.51-30.85,62.27-95.69,21.96-130.4-21-18.1-55.81-12.37-68.65,12.45-17.53,33.85-17.84,63.18-47.17,73.86-8.55,3.08-19.53,4.6-34.11,4.21l-8.38-.13Z"/>
        <path class="cls-10" d="M334.86,292.13c64.75,1.82,58.63-34.33,81.28-78.07,12.89-24.82,47.69-30.55,68.65-12.45,40.31,34.72,7.55,99.55-21.96,130.4-43.53,45.48-104.58,47.74-163.86,40.18,18.31-22.22,24.65-52.81,27.56-80.15"/>
        <path class="cls-11" d="M326.53,292.04c31.74,2.99,45.46-5.65,43.04-4.34-10.23,5.53-13.68,26.46-12.24,40.06,4.48,32.63,42.51,36.02,64.68,33.27-49.56,23-116.49,12.11-123.04,11.16l14.86-20.44c1.57-3.23,4.69-11.64,8.48-26.55l4.22-33.16Z"/>
        <path class="cls-5" d="M182.34,92.77c-3.49,100.35,208.86,133.06,96.89,274.21-4.38-3.38-5.38-23.82-6.38-30.64,7.38-62.75-38.88-113.13-76.98-153.45-14.62-15.49-19.33-48.44-19.28-73.61l2.71-8.62"/>
        <path class="cls-2" d="M182.34,92.77c.14,17.66-5,41.71-.49,57.84.61,2.21,5.51,16.75,14.06,32.29,13.8,25,34.8,56.07,44.39,68.61,5.99,8.9,25.17,42.31,24.34,50.99-.09.82.26-.82,0,0,.04,1.82,0,11.85-2.17,14.23-1.04,1.69-3.12,2.3-6.38-.09,2.78,11.8-20.83-2.47-25.6-5.51l-.56-1.35c-4.04.69-41.01-26.51-40.62-30.94-4.43-2-19.88-31.11-22.48-36.67-6.21-30.2-7.72-60.19-4.17-91.04.67-5.89,1.45-12.47,2.74-18.55.25-1.21,4.17-16.34,16.93-39.81"/>
        <path class="cls-16" d="M322.97,1.81c-55.42,34.33-41.01,109.05-53.68,182.91,0,0-21.09-11.89-36.28-27.69-22.39-23.3-39.53-56.37-23.26-96.12C227.59,17.22,281.1,4.76,322.97,1.85v-.04Z"/>
        <path class="cls-12" d="M255.84,340.38s-.04-.09,0-.17c2.21,1.56.43,1.95,0,.17Z"/>
        <path class="cls-12" d="M279.27,366.25c-.69.39-.35,1-2.21.87-3.12-.22-14.75-4.47-18.27-5.86-27.73-11.15-64.31-55.2-64.88-55.98-3.43-4.82-9.46-12.02-11.59-17.53,2,2.34,42.35,33.37,43.87,37.93,9.72,2.47,20.05,8.16,28.94,13.32.3.17.56.35.78.48-.04.09,0,.13,0,.17.43,1.78,2.21,1.39,0-.17-.22-2,1.08-14.15,3.21-14.88-2.95-3.21,1.04-19.22,1.08-22.7l-11.98-37.36c9.94,12.76,25.21,56.63,26.51,66.74,2.13,13.41,2.82,23.3,4.51,34.98h0Z"/>
        <path class="cls-7" d="M260.27,321.68c-1.35,7.64-9.59,10.5-17.14,10.28-21.26-2-38.71-19.01-52.81-33.5-15.36-15.88-21.96-41.44-24.82-63.36.35-1.35,2.34,3.21,2.82,4.04,13.71,28.08,33.59,55.89,61.14,69.91,21.87,11.41,33.81,13.06,28.21-14.58-.65-3.25,1.43,3.04,2.52,7.12,1.39,5.08,1.69,13.5.04,20.09h.04Z"/>
        <path class="cls-14" d="M260.92,316.82c-.26,6.21-2.34,19.88-3.99,25.99-6.68-3.12-20.61-8.98-28.77-13.63-5.81-3.3-4.69-2.99-8.55-5.29,13.54,7.55,34.76,6.99,41.27-7.07h.04Z"/>
        <path class="cls-3" d="M322.97,1.81c72.47-5.08,136.87,15.58,167.81,85.66,17.14,38.84,6.38,86.62-44.31,81.71-46.74-4.51-37.67-48.95-65.74-70.6-23.3-17.97-60.71-16.75-82.8,2.6-17.97,15.75-23.91,41.7-26.47,64.49l-2.82-4.82c-24.13-33.59-27.6-61.84-6.6-98.12,13.93-24.08,36.15-48.3,60.88-60.88l.04-.04Z"/>
      </g>
    </g>
  </g>
</svg>